<svg width="174" height="42" viewBox="0 0 174 42" fill="none" xmlns="http://www.w3.org/2000/svg">
<path d="M62.9359 11.1727H66.6516V27.4704H62.7566V17.8096L58.2977 24.831H57.0421L52.5577 17.8096V27.4704H48.6626V11.1727H52.3783L57.6315 19.6547L62.9359 11.1727Z" fill="#1E295B"/>
<path d="M81.5912 19.9622V27.496H77.7474V26.0098C77.0043 26.9067 75.5693 27.7779 73.5192 27.7779C70.8286 27.7779 69.0348 26.1123 69.0348 23.6779C69.0348 21.3203 70.5979 19.5009 74.288 19.5009C75.3643 19.5009 76.7224 19.5778 77.7474 19.6547C77.6705 18.2709 76.6968 17.4765 74.7749 17.4765C73.6217 17.4765 72.1867 17.9122 71.2642 18.6297L69.7267 15.9646C71.2898 14.8115 73.3399 14.299 75.2105 14.299C79.6437 14.3246 81.5912 16.5028 81.5912 19.9622ZM77.7218 22.1916V21.9097C76.9787 21.8072 76.2099 21.7816 75.2361 21.7816C73.3399 21.7816 72.6992 22.4222 72.6992 23.3447C72.6992 24.2672 73.4936 24.7541 74.8261 24.7541C76.3636 24.7541 77.5937 23.7035 77.7218 22.1916Z" fill="#1E295B"/>
<path d="M91.6363 24.011C95.6851 23.9597 97.3252 25.3947 97.3252 27.5473C97.3252 30.1098 94.8395 31.7498 89.9707 31.7498C86.0244 31.7498 83.9231 30.5967 83.9231 28.4442C83.9231 27.4448 84.6406 26.676 85.4862 26.2148C84.7175 25.7535 84.3331 25.0104 84.3331 24.216C84.3331 23.1141 84.9994 22.3197 85.845 21.8584C84.8456 21.1153 84.3331 20.0134 84.3331 18.6553C84.3331 15.9646 86.5625 14.299 90.2782 14.299C91.3545 14.299 92.2513 14.4271 92.9689 14.7602L96.4283 13.7096L97.1458 16.2977L95.4033 16.554C95.9414 17.0665 96.3001 17.8096 96.3001 18.6553C96.3001 21.3716 94.0707 23.0885 90.3294 23.0885C89.5351 23.0885 88.7919 23.0116 88.1513 22.8835C87.9975 23.0372 87.895 23.2678 87.895 23.4985C87.895 23.9597 88.3307 24.0366 88.92 24.0366H91.6363V24.011ZM93.5839 27.6241C93.5839 26.881 92.687 26.7273 90.9701 26.7273H88.1257C87.7413 27.086 87.5619 27.3679 87.5619 27.7523C87.5619 28.6492 88.6382 28.8285 90.2526 28.8285C92.482 28.8542 93.5839 28.5723 93.5839 27.6241ZM88.0744 18.6296C88.0744 19.7315 88.8432 20.2953 90.2782 20.2953C91.7132 20.2953 92.482 19.7059 92.482 18.6296C92.482 17.6046 91.7132 17.0665 90.2782 17.0665C88.8432 17.0921 88.0744 17.6303 88.0744 18.6296Z" fill="#1E295B"/>
<path d="M99.3496 13.274V10.2502H103.322V13.274H99.3496ZM99.4265 27.496V14.6065H103.27V27.496H99.4265Z" fill="#1E295B"/>
<path d="M105.602 21.0641C105.602 17.0921 108.728 14.3246 112.803 14.3246C114.802 14.3246 116.749 15.0421 118.082 16.6821L115.545 18.8859C114.776 17.9378 113.879 17.6046 112.829 17.6046C110.984 17.6046 109.523 18.809 109.523 21.0384C109.523 23.2422 111.009 24.4979 112.905 24.4979C113.879 24.4979 114.776 24.1904 115.57 23.2166L118.107 25.4204C116.775 27.0348 114.827 27.7779 112.829 27.7779C108.703 27.7779 105.602 25.0104 105.602 21.0641Z" fill="#1E295B"/>
<path d="M134.328 17.0665C134.328 20.7822 131.535 23.0372 127.051 23.0372H124.232V27.496H120.234V11.1983H127.076C131.561 11.1726 134.328 13.4277 134.328 17.0665ZM126.974 19.7059C129.075 19.7059 130.331 18.8346 130.331 17.0665C130.331 15.3496 129.075 14.5039 126.974 14.5039H124.257V19.7059H126.974Z" fill="#2BACE2"/>
<path d="M135.84 21.0384C135.84 17.1434 138.89 14.3246 143.066 14.3246C147.243 14.3246 150.267 17.1434 150.267 21.0128C150.267 24.9079 147.243 27.7779 143.041 27.7779C138.89 27.7779 135.84 24.9335 135.84 21.0384ZM146.372 21.0384C146.372 18.9628 144.963 17.6046 143.041 17.6046C141.119 17.6046 139.735 18.9628 139.735 20.9872C139.735 23.0885 141.145 24.4466 143.066 24.4466C144.988 24.4722 146.372 23.0885 146.372 21.0384Z" fill="#2BACE2"/>
<path d="M161.132 14.504L161.004 18.194C160.543 18.0659 160.056 18.0146 159.595 18.0146C157.673 18.0146 156.469 19.7059 156.469 22.2428V27.496H152.625V14.6065H156.469V16.349C157.365 15.0165 158.647 14.4271 159.954 14.4271C160.389 14.4271 160.799 14.4783 161.132 14.504Z" fill="#2BACE2"/>
<path d="M173.356 26.8554C172.228 27.496 170.588 27.7523 169.435 27.7523C166.539 27.7523 164.848 26.1891 164.848 23.2678V17.7584H162.567V14.5808H164.951L165.181 11.3264H168.666V14.5808H172.869V17.7584H168.666V22.7553C168.666 23.8316 169.256 24.4466 170.204 24.4466C170.87 24.4466 171.895 24.2929 172.638 23.9597L173.356 26.8554Z" fill="#2BACE2"/>
<path d="M32.1855 16.3746C32.1342 16.9384 32.083 17.5021 31.9548 18.0659C31.8523 18.5784 31.7242 19.1165 31.5704 19.6034C31.4167 20.0647 31.2629 20.5516 31.0579 20.9872C30.8786 21.4228 30.6736 21.8328 30.4686 22.2428C30.2636 22.6272 30.0329 22.986 29.8023 23.3447C29.5717 23.6779 29.341 24.011 29.0848 24.3441C28.8542 24.6516 28.5979 24.9335 28.316 25.2154C28.0598 25.4973 27.8035 25.7535 27.5216 26.0098C27.2654 26.2404 26.9835 26.4967 26.7016 26.7017C26.4197 26.9067 26.1379 27.1117 25.856 27.3167C25.6766 27.4448 25.4716 27.5729 25.2666 27.701C25.7022 27.4192 26.1122 27.1117 26.471 26.7529C26.5735 26.6504 26.6504 26.5735 26.7529 26.471C26.9579 26.266 27.1373 26.061 27.3423 25.8304C27.5729 25.5741 27.8035 25.2923 28.0085 25.0104C28.2135 24.7285 28.4185 24.421 28.6235 24.1135C28.8285 23.806 29.0079 23.4729 29.1873 23.1397C29.3667 22.8066 29.546 22.4478 29.6998 22.0891C29.8535 21.7047 30.0073 21.3203 30.1354 20.9359C30.2635 20.5259 30.3917 20.1159 30.4942 19.6803C30.5967 19.219 30.6992 18.7834 30.7504 18.3222C30.8273 17.8353 30.8529 17.3484 30.8786 16.8359C30.9042 16.2978 30.8786 15.7596 30.8529 15.2471C30.8017 14.6834 30.7248 14.1196 30.6223 13.5558C30.4942 12.9665 30.3404 12.3771 30.1611 11.7877C29.956 11.1727 29.6998 10.5577 29.4179 9.96829C29.1104 9.35328 28.7773 8.76389 28.3673 8.17451C27.9573 7.58513 27.496 6.99574 27.0091 6.45761C26.9066 6.32948 26.7785 6.20135 26.6504 6.09885C26.2147 5.66322 25.7791 5.27884 25.2922 4.89446C24.6516 4.38195 23.9853 3.94632 23.2678 3.58756C22.5247 3.17756 21.7816 2.87005 20.9872 2.58817C20.1672 2.30629 19.3471 2.12692 18.5015 1.99879C17.6302 1.87067 16.759 1.81941 15.8877 1.84504C14.9908 1.87066 14.1196 1.99879 13.2483 2.17817C12.377 2.38317 11.5058 2.63943 10.6858 3.02381C9.86575 3.38256 9.04574 3.8182 8.27698 4.3307C8.96886 3.74132 9.712 3.20318 10.532 2.74193C11.352 2.28067 12.172 1.89629 13.0177 1.58879C13.8889 1.28128 14.7602 1.07628 15.6571 0.948151C16.554 0.820024 17.4509 0.768773 18.3734 0.820024C19.2703 0.845649 20.1415 0.973775 21.0128 1.17878C21.8584 1.38378 22.7041 1.64004 23.4985 1.99879C24.2928 2.33192 25.036 2.74192 25.7535 3.20318C26.4454 3.66444 27.086 4.17695 27.701 4.7407C28.2904 5.27884 28.8029 5.89385 29.3154 6.53448C29.6742 6.99574 30.0073 7.50825 30.3148 8.02076C30.3917 8.17451 30.4686 8.30263 30.5711 8.45638C30.9298 9.12264 31.2117 9.78891 31.4423 10.4552C31.6729 11.1214 31.8523 11.7877 31.9804 12.4539C32.1086 13.0946 32.1855 13.7352 32.2111 14.4015C32.2367 15.1446 32.2111 15.7596 32.1855 16.3746Z" fill="#2BACE2"/>
<path d="M28.3673 11.4033C28.6236 11.9158 28.8286 12.4539 29.0336 12.9921C29.2129 13.5046 29.3667 13.9915 29.4692 14.5296C29.5717 15.0165 29.6742 15.5034 29.7255 15.9902C29.7767 16.4515 29.8279 16.9128 29.8279 17.374C29.8536 17.8096 29.8279 18.2453 29.8023 18.6809C29.7767 19.0909 29.7254 19.5009 29.6742 19.9109C29.6229 20.2953 29.5461 20.6797 29.4692 21.0641C29.3923 21.4228 29.2898 21.7816 29.1873 22.1403C29.0848 22.4735 28.9567 22.8322 28.8286 23.1653C28.7004 23.4985 28.5723 23.806 28.4186 24.1135C28.3161 24.3185 28.2136 24.5235 28.111 24.7285C28.3417 24.2672 28.5467 23.806 28.6748 23.3191C28.7004 23.191 28.7517 23.0628 28.7773 22.9347C28.8542 22.6528 28.9054 22.371 28.9567 22.0891C29.0336 21.7303 29.0848 21.3972 29.1104 21.0384C29.1617 20.6797 29.1873 20.3209 29.1873 19.9622C29.2129 19.5778 29.2129 19.219 29.1873 18.8346C29.1617 18.4503 29.1361 18.0659 29.1104 17.6815C29.0592 17.2715 29.0079 16.8615 28.9054 16.4771C28.8286 16.0415 28.7004 15.6315 28.5979 15.2215C28.4698 14.7858 28.3161 14.3502 28.1367 13.9146C27.9573 13.4533 27.7523 13.0177 27.496 12.5821C27.2398 12.1208 26.9835 11.6595 26.676 11.2239C26.3685 10.7627 26.0098 10.3014 25.6254 9.86577C25.2154 9.40451 24.8054 8.96889 24.3441 8.55888C23.8572 8.12325 23.3447 7.71324 22.8066 7.35448C22.2428 6.9701 21.6278 6.63697 21.0128 6.32947C20.3722 6.02196 19.6803 5.74008 18.9628 5.53508C18.809 5.48383 18.6297 5.43258 18.4759 5.40695C17.8865 5.2532 17.2971 5.12508 16.7078 5.0482C15.9134 4.9457 15.0934 4.89445 14.299 4.92007C13.4533 4.9457 12.6333 5.0482 11.8389 5.20195C10.9933 5.38133 10.1733 5.61196 9.3789 5.94509C8.55889 6.27822 7.79012 6.6626 7.04699 7.12386C6.30385 7.58511 5.58634 8.12324 4.92008 8.73825C4.25382 9.35326 3.63881 10.0195 3.10068 10.737C2.56255 11.4545 2.07566 12.2489 1.69128 13.0689C1.99879 12.2233 2.35754 11.3777 2.84443 10.5577C3.30568 9.73764 3.84382 8.9945 4.4332 8.32824C5.02258 7.63636 5.68884 6.99573 6.40635 6.4576C7.12386 5.89384 7.89263 5.40695 8.68701 4.99695C9.4814 4.58694 10.3014 4.25381 11.1471 3.97193C11.9927 3.71568 12.8383 3.53631 13.7096 3.4338C14.5552 3.3313 15.4009 3.30567 16.2721 3.35692C17.0921 3.40817 17.9121 3.5363 18.7322 3.71568C19.5009 3.89505 20.2697 4.15131 21.0128 4.45882C21.551 4.68945 22.0891 4.94569 22.6272 5.2532C22.781 5.33008 22.9091 5.43258 23.0629 5.50945C23.7035 5.89383 24.2929 6.32947 24.831 6.81635C25.3691 7.27761 25.856 7.76449 26.3173 8.277C26.7529 8.76388 27.1373 9.30202 27.496 9.84015C27.8035 10.3014 28.0854 10.8395 28.3673 11.4033Z" fill="#2BACE2"/>
<path d="M22.576 8.99451C23.0628 9.32764 23.4985 9.66077 23.9341 10.0451C24.3441 10.3783 24.7285 10.7627 25.0872 11.147C25.4204 11.5058 25.7535 11.8902 26.0354 12.2746C26.3173 12.6333 26.5735 13.0177 26.8298 13.4277C27.0604 13.7865 27.2654 14.1708 27.4704 14.5552C27.6498 14.914 27.8292 15.2984 27.9573 15.6827C28.111 16.0415 28.2392 16.4002 28.3417 16.7846C28.4442 17.1434 28.5467 17.5021 28.6235 17.8609C28.7004 18.2196 28.7773 18.5528 28.8286 18.9115C28.8798 19.2447 28.9054 19.6034 28.9311 19.9622C28.9567 20.1928 28.9567 20.4234 28.9567 20.6541C28.9311 20.1415 28.8542 19.629 28.7517 19.1422C28.726 19.014 28.6748 18.8859 28.6492 18.7578C28.5723 18.4759 28.4954 18.2196 28.3929 17.9378C28.2904 17.6046 28.1623 17.2715 28.0085 16.964C27.8548 16.6309 27.701 16.2977 27.5473 15.9902C27.3679 15.6571 27.1885 15.324 26.9835 15.0165C26.7785 14.6833 26.5479 14.3758 26.3173 14.0683C26.061 13.7352 25.8048 13.4277 25.5485 13.1202C25.2666 12.7871 24.9591 12.4796 24.6516 12.1977C24.3185 11.8902 23.9597 11.5827 23.601 11.3008C23.2166 10.9933 22.8066 10.7114 22.3966 10.4552C21.9353 10.1733 21.4741 9.91702 21.0128 9.6864C20.5003 9.43014 19.9622 9.22514 19.424 9.04576C18.8603 8.84076 18.2453 8.68701 17.6559 8.55888C17.0153 8.43075 16.3746 8.32825 15.7084 8.30263C15.0165 8.25138 14.3246 8.25138 13.6327 8.30263C12.9152 8.35388 12.1977 8.45638 11.4545 8.63575C11.3008 8.66138 11.1214 8.71263 10.9677 8.76388C10.3783 8.91763 9.81452 9.12264 9.25076 9.32764C8.50762 9.63515 7.79012 9.9939 7.09823 10.4039C6.38072 10.8395 5.71446 11.3264 5.09945 11.8902C4.45882 12.4539 3.86943 13.0946 3.3313 13.7608C2.79317 14.4527 2.30628 15.1959 1.89628 15.9646C1.48627 16.759 1.12752 17.579 0.871263 18.4247C0.589384 19.2703 0.410007 20.1672 0.307506 21.0641C0.205004 21.961 0.179378 22.8835 0.256254 23.806C0.0768761 22.9091 0 22.0122 0 21.0641C0 20.1415 0.0768761 19.219 0.256254 18.3221C0.435631 17.4253 0.691885 16.554 1.02502 15.7084C1.35814 14.8627 1.76815 14.0683 2.25503 13.2996C2.74192 12.5564 3.28005 11.8389 3.89506 11.1727C4.48444 10.532 5.1507 9.94265 5.84259 9.43014C6.53447 8.91763 7.25198 8.482 8.02074 8.09762C8.76388 7.73886 9.53264 7.43136 10.327 7.1751C11.0958 6.94448 11.8646 6.79073 12.6846 6.68822C13.2739 6.61135 13.8633 6.58572 14.4783 6.58572C14.6577 6.58572 14.8115 6.58572 14.9908 6.58572C15.734 6.61135 16.4515 6.68822 17.169 6.81635C17.8609 6.94448 18.5271 7.12386 19.1678 7.35449C19.7828 7.55949 20.3978 7.81574 20.9616 8.12325C21.5253 8.35387 22.0634 8.66138 22.576 8.99451Z" fill="#2BACE2"/>
<path d="M16.349 9.81452C16.9128 9.86577 17.4765 9.91702 18.0403 10.0451C18.5528 10.1477 19.0909 10.2758 19.5778 10.4295C20.0391 10.5833 20.526 10.737 20.9616 10.942C21.3972 11.1214 21.8072 11.3264 22.2172 11.5314C22.6016 11.7364 22.9604 11.9671 23.3191 12.1977C23.6523 12.4283 23.9854 12.6589 24.3185 12.9152C24.626 13.1458 24.9079 13.4021 25.1898 13.684C25.4717 13.9402 25.7279 14.1965 25.9842 14.4783C26.2148 14.7346 26.471 15.0165 26.6761 15.2984C26.8811 15.5802 27.0861 15.8621 27.2911 16.144C27.4192 16.3234 27.5473 16.5284 27.6754 16.7334C27.3936 16.2977 27.0861 15.8877 26.7273 15.529C26.6248 15.4265 26.5479 15.3496 26.4454 15.2471C26.2404 15.0421 26.0354 14.8627 25.8048 14.6577C25.5485 14.4271 25.2667 14.1965 24.9848 13.9915C24.7029 13.7865 24.3954 13.5815 24.0879 13.3764C23.7804 13.1714 23.4473 12.9921 23.1141 12.8127C22.781 12.6333 22.4222 12.4539 22.0635 12.3002C21.6791 12.1464 21.2947 11.9927 20.9103 11.8646C20.5003 11.7364 20.0903 11.6083 19.6547 11.5058C19.1934 11.4033 18.7578 11.3008 18.2966 11.2495C17.8097 11.1727 17.3228 11.147 16.8103 11.1214C16.2721 11.0958 15.734 11.1214 15.2215 11.147C14.6578 11.1983 14.094 11.2752 13.5302 11.3777C12.9408 11.5058 12.3515 11.6595 11.7621 11.8389C11.1471 12.0439 10.5321 12.3002 9.94268 12.5821C9.32767 12.8896 8.73829 13.2227 8.1489 13.6327C7.55952 14.0427 6.97014 14.504 6.432 14.9908C6.30388 15.0933 6.17575 15.2215 6.07325 15.3496C5.63762 15.7852 5.25324 16.2209 4.86886 16.7077C4.35635 17.3484 3.92072 18.0146 3.56196 18.7322C3.15196 19.4753 2.84445 20.2184 2.56257 21.0128C2.28069 21.8328 2.10132 22.6528 1.97319 23.4985C1.84506 24.3697 1.79381 25.241 1.81943 26.1123C1.84506 27.0092 1.97319 27.8804 2.15257 28.7517C2.35757 29.6229 2.61382 30.4942 2.9982 31.3142C3.35696 32.1342 3.79259 32.9542 4.3051 33.723C3.71571 33.0311 3.17758 32.288 2.71632 31.468C2.25507 30.648 1.87069 29.8279 1.56318 28.9823C1.25568 28.111 1.05067 27.2398 0.922547 26.3429C0.79442 25.446 0.743169 24.5491 0.79442 23.6266C0.820045 22.7297 0.948172 21.8585 1.15318 20.9872C1.35818 20.1416 1.61443 19.2959 1.97319 18.5015C2.30632 17.7071 2.71632 16.964 3.17758 16.2465C3.63884 15.5546 4.15135 14.914 4.7151 14.299C5.25324 13.7096 5.86825 13.1971 6.50888 12.6846C6.97014 12.3258 7.48265 11.9927 7.99515 11.6852C8.1489 11.6083 8.27703 11.5314 8.43078 11.4289C9.09704 11.0702 9.7633 10.7883 10.4296 10.5577C11.0958 10.327 11.7621 10.1476 12.4283 10.0195C13.069 9.8914 13.7096 9.81452 14.3759 9.7889C15.119 9.76327 15.734 9.76327 16.349 9.81452Z" fill="#2BACE2"/>
<path d="M11.3777 13.6327C11.8902 13.3764 12.4283 13.1714 12.9664 12.9664C13.4789 12.7871 13.9658 12.6333 14.504 12.5308C14.9908 12.4283 15.4777 12.3258 15.9646 12.2746C16.4259 12.2233 16.8871 12.1721 17.3484 12.1721C17.784 12.1464 18.2196 12.1721 18.6553 12.1977C19.0653 12.2233 19.4753 12.2746 19.8853 12.3258C20.2697 12.3771 20.654 12.4539 21.0384 12.5308C21.3972 12.6077 21.7559 12.7102 22.1147 12.8127C22.4478 12.9152 22.8066 13.0433 23.1397 13.1714C23.4728 13.2996 23.7803 13.4277 24.0878 13.5814C24.2929 13.6839 24.4979 13.7865 24.7029 13.889C24.2416 13.6583 23.7803 13.4533 23.2935 13.3252C23.1653 13.2996 23.0372 13.2483 22.9091 13.2227C22.6272 13.1458 22.3453 13.0946 22.0634 13.0433C21.7047 12.9664 21.3716 12.9152 21.0128 12.8896C20.654 12.8383 20.2953 12.8127 19.9365 12.8127C19.5522 12.7871 19.1934 12.7871 18.809 12.8127C18.4246 12.8383 18.0403 12.8639 17.6559 12.8896C17.2459 12.9408 16.8359 12.9921 16.4515 13.0946C16.0159 13.1714 15.6058 13.2996 15.1958 13.4021C14.7602 13.5302 14.3246 13.684 13.8889 13.8633C13.4277 14.0427 12.9921 14.2477 12.5564 14.504C12.0952 14.7602 11.6339 15.0165 11.1983 15.324C10.737 15.6315 10.2758 15.9902 9.84014 16.3746C9.37888 16.7846 8.94325 17.1946 8.53324 17.6559C8.09761 18.1428 7.6876 18.6553 7.32885 19.1934C6.94447 19.7572 6.61134 20.3722 6.30383 20.9872C5.99633 21.6278 5.71445 22.3197 5.50945 23.0372C5.4582 23.191 5.40694 23.3703 5.38132 23.5241C5.22757 24.1135 5.09944 24.7029 5.02256 25.2922C4.92006 26.0866 4.86881 26.9066 4.89444 27.701C4.92006 28.5467 5.02257 29.3667 5.17632 30.1611C5.3557 31.0067 5.58632 31.8267 5.91945 32.6211C6.25258 33.4411 6.63696 34.2099 7.09822 34.953C7.55948 35.6962 8.09761 36.4137 8.71262 37.0799C9.32763 37.7462 9.99389 38.3612 10.7114 38.8993C11.4289 39.4375 12.2233 39.9243 13.0433 40.3087C12.1977 40.0012 11.352 39.6425 10.532 39.1556C9.71201 38.6943 8.96887 38.1562 8.30261 37.5668C7.61073 36.9774 6.97009 36.3112 6.43196 35.5937C5.8682 34.8761 5.38132 34.1074 4.97131 33.313C4.56131 32.5186 4.22818 31.6986 3.9463 30.853C3.69004 30.0073 3.51067 29.1617 3.40817 28.2904C3.30566 27.4448 3.28004 26.5991 3.33129 25.7279C3.38254 24.9079 3.51067 24.0879 3.69004 23.2678C3.86942 22.4991 4.12568 21.7303 4.43318 20.9872C4.66381 20.4491 4.92006 19.9109 5.22757 19.3728C5.30444 19.219 5.40695 19.0909 5.48382 18.9372C5.8682 18.2965 6.30383 17.7071 6.79072 17.169C7.25197 16.6309 7.73886 16.144 8.25136 15.6827C8.73825 15.2471 9.27638 14.8627 9.81451 14.504C10.3014 14.1965 10.8139 13.889 11.3777 13.6327Z" fill="#2BACE2"/>
<path d="M8.96884 19.4241C9.30197 18.9372 9.6351 18.5015 10.0195 18.0659C10.3526 17.6559 10.737 17.2715 11.1214 16.9128C11.4801 16.5796 11.8645 16.2465 12.2489 15.9646C12.6076 15.6827 12.992 15.4265 13.402 15.1702C13.7608 14.9396 14.1452 14.7346 14.5296 14.5296C14.8883 14.3502 15.2727 14.1709 15.6571 14.0427C16.0158 13.889 16.3746 13.7608 16.759 13.6583C17.1177 13.5558 17.4765 13.4533 17.8352 13.3765C18.194 13.2996 18.5271 13.2227 18.8859 13.1715C19.219 13.1202 19.5778 13.0946 19.9365 13.069C20.1671 13.0433 20.3978 13.0433 20.6284 13.0433C20.1159 13.069 19.6034 13.1458 19.1165 13.2483C18.9884 13.274 18.8602 13.3252 18.7321 13.3508C18.4502 13.4277 18.194 13.5046 17.9121 13.6071C17.579 13.7096 17.2458 13.8377 16.9383 13.9915C16.6052 14.1452 16.2721 14.299 15.9646 14.4527C15.6314 14.6321 15.2983 14.8115 14.9908 15.0165C14.6577 15.2215 14.3502 15.4521 14.0427 15.6827C13.7095 15.939 13.402 16.1953 13.0945 16.4515C12.7614 16.7334 12.4539 17.0409 12.172 17.3484C11.8645 17.6815 11.557 18.0403 11.2751 18.399C10.9676 18.7834 10.6857 19.1934 10.4295 19.6034C10.1476 20.0647 9.89136 20.5259 9.66073 20.9872C9.40448 21.4997 9.19947 22.0378 9.0201 22.576C8.81509 23.1397 8.66134 23.7547 8.53321 24.3441C8.40509 24.9848 8.30259 25.6254 8.27696 26.2917C8.22571 26.9835 8.22571 27.6754 8.27696 28.3673C8.32821 29.0848 8.43071 29.8023 8.61009 30.5455C8.63571 30.6992 8.68696 30.8786 8.73822 31.0323C8.89197 31.6217 9.09697 32.1855 9.30198 32.7492C9.60948 33.4924 9.96823 34.2099 10.3782 34.9018C10.8139 35.6193 11.3008 36.2855 11.8645 36.9006C12.4283 37.5412 13.0689 38.1306 13.7352 38.6687C14.427 39.2068 15.1702 39.6937 15.9389 40.1037C16.7333 40.5137 17.5533 40.8725 18.399 41.1287C19.2446 41.4106 20.1415 41.59 21.0384 41.6925C21.9353 41.795 22.8578 41.8206 23.7803 41.7438C22.8834 41.9231 21.9865 42 21.0384 42C20.1159 42 19.1934 41.9231 18.2965 41.7438C17.3996 41.5644 16.5283 41.3081 15.6827 40.975C14.8371 40.6419 14.0427 40.2319 13.2739 39.745C12.5308 39.2581 11.8133 38.72 11.147 38.105C10.5064 37.5156 9.91698 36.8493 9.40448 36.1574C8.89197 35.4655 8.45634 34.748 8.07196 33.9793C7.7132 33.2361 7.4057 32.4674 7.14944 31.673C6.91881 30.9042 6.76506 30.1355 6.66256 29.3155C6.58568 28.7261 6.56006 28.1367 6.56006 27.5217C6.56006 27.3423 6.56006 27.1885 6.56006 27.0092C6.58568 26.266 6.66256 25.5485 6.79069 24.831C6.91881 24.1391 7.09819 23.4729 7.32882 22.8322C7.53382 22.2172 7.79008 21.6022 8.09758 21.0384C8.32821 20.4491 8.63571 19.9366 8.96884 19.4241Z" fill="#2BACE2"/>
<path d="M9.78892 25.651C9.84017 25.0872 9.89142 24.5235 10.0195 23.9597C10.122 23.4472 10.2502 22.9091 10.4039 22.4222C10.5577 21.9609 10.7114 21.4741 10.9164 21.0384C11.0958 20.6028 11.3008 20.1928 11.5058 19.7828C11.7108 19.3984 11.9415 19.0397 12.1721 18.6809C12.4027 18.3478 12.6333 18.0146 12.8896 17.6815C13.1202 17.374 13.3765 17.0921 13.6583 16.8102C13.9146 16.5284 14.1709 16.2721 14.4527 16.0159C14.709 15.7852 14.9909 15.529 15.2727 15.324C15.5546 15.119 15.8365 14.914 16.1184 14.709C16.2978 14.5808 16.5028 14.4527 16.7078 14.3246C16.2721 14.6065 15.8621 14.914 15.5034 15.2727C15.4009 15.3752 15.324 15.4521 15.2215 15.5546C15.0165 15.7596 14.8371 15.9646 14.6321 16.1952C14.4015 16.4515 14.1709 16.7334 13.9659 17.0152C13.7609 17.2971 13.5558 17.6046 13.3508 17.9121C13.1458 18.2196 12.9665 18.5528 12.7871 18.8859C12.6077 19.219 12.4283 19.5778 12.2746 19.9365C12.1208 20.3209 11.9671 20.7053 11.8389 21.0897C11.7108 21.4997 11.5827 21.9097 11.4802 22.3453C11.3777 22.8066 11.2752 23.2422 11.2239 23.7035C11.1471 24.1903 11.1214 24.6772 11.0958 25.1897C11.0702 25.7279 11.0958 26.266 11.1214 26.7785C11.1727 27.3423 11.2496 27.906 11.3521 28.4698C11.4802 29.0592 11.6339 29.6486 11.8133 30.2379C12.0183 30.8529 12.2746 31.468 12.5565 32.0573C12.864 32.6723 13.1971 33.2617 13.6071 33.8511C14.0171 34.4405 14.4784 35.0299 14.9652 35.568C15.0677 35.6961 15.1959 35.8243 15.324 35.9268C15.7596 36.3624 16.1953 36.7468 16.6821 37.1312C17.3228 37.6437 17.989 38.0793 18.7066 38.4381C19.4497 38.8481 20.1928 39.1556 20.9872 39.4375C21.8072 39.7193 22.6272 39.8987 23.4729 40.0268C24.3441 40.155 25.2154 40.2062 26.0867 40.1806C26.9835 40.155 27.8548 40.0268 28.7261 39.8475C29.5973 39.6425 30.4686 39.3862 31.2886 39.0018C32.1086 38.6431 32.9286 38.2074 33.6974 37.6949C33.0055 38.2843 32.2624 38.8224 31.4424 39.2837C30.6224 39.745 29.8023 40.1293 28.9567 40.4368C28.0854 40.7443 27.2142 40.9494 26.3173 41.0775C25.4204 41.2056 24.5235 41.2569 23.601 41.2056C22.7041 41.18 21.8328 41.0519 20.9616 40.8469C20.1159 40.6418 19.2703 40.3856 18.4759 40.0268C17.6815 39.6937 16.9384 39.2837 16.2209 38.8224C15.529 38.3612 14.8884 37.8487 14.2734 37.2849C13.684 36.7468 13.1715 36.1318 12.659 35.4911C12.3002 35.0299 11.9671 34.5174 11.6596 34.0049C11.5827 33.8511 11.5058 33.723 11.4033 33.5692C11.0446 32.903 10.7627 32.2367 10.5321 31.5705C10.3014 30.9042 10.122 30.2379 9.99392 29.5717C9.86579 28.9311 9.78892 28.2904 9.76329 27.6242C9.73767 26.8554 9.73767 26.2404 9.78892 25.651Z" fill="#2BACE2"/>
<path d="M13.6071 30.6223C13.3509 30.1098 13.1459 29.5717 12.9409 29.0335C12.7615 28.521 12.6077 28.0342 12.5052 27.496C12.4027 27.0091 12.3002 26.5223 12.249 26.0354C12.1977 25.5741 12.1465 25.1129 12.1465 24.6516C12.1209 24.216 12.1465 23.7803 12.1721 23.3447C12.1977 22.9347 12.249 22.5247 12.3002 22.1147C12.3515 21.7303 12.4284 21.3459 12.5052 20.9616C12.5821 20.6028 12.6846 20.244 12.7871 19.8853C12.8896 19.5522 13.0177 19.1934 13.1459 18.8603C13.274 18.5271 13.4021 18.2196 13.5559 17.9121C13.6584 17.7071 13.7609 17.5021 13.8634 17.2971C13.6327 17.7584 13.4277 18.2196 13.2996 18.7065C13.274 18.8346 13.2227 18.9628 13.1971 19.0909C13.1202 19.3728 13.069 19.6547 13.0177 19.9365C12.9409 20.2953 12.8896 20.6284 12.864 20.9872C12.8127 21.3459 12.7871 21.7047 12.7871 22.0634C12.7615 22.4478 12.7615 22.8066 12.7871 23.191C12.8127 23.5753 12.8384 23.9597 12.864 24.3441C12.9152 24.7541 12.9665 25.1641 13.069 25.5485C13.1459 25.9841 13.274 26.3941 13.3765 26.8041C13.5046 27.2398 13.6584 27.6754 13.8378 28.111C14.0171 28.5723 14.2221 29.0079 14.4784 29.4436C14.7346 29.9048 14.9909 30.3661 15.2984 30.8017C15.6059 31.263 15.9647 31.7242 16.349 32.1598C16.759 32.6211 17.1691 33.0567 17.6303 33.4667C18.1172 33.9024 18.6297 34.3124 19.1678 34.6711C19.7316 35.0555 20.3466 35.3886 20.9616 35.6961C21.6022 36.0036 22.2941 36.2855 23.0116 36.4905C23.1654 36.5418 23.3448 36.593 23.4985 36.6187C24.0879 36.7724 24.6773 36.9005 25.2667 36.9774C26.0611 37.0799 26.8811 37.1312 27.6755 37.1055C28.5211 37.0799 29.3411 36.9774 30.1355 36.8237C30.9811 36.6443 31.8011 36.4137 32.5955 36.0805C33.4155 35.7474 34.1843 35.363 34.9274 34.9018C35.6706 34.4405 36.3881 33.9024 37.0543 33.2874C37.7206 32.6724 38.3356 32.0061 38.8737 31.2886C39.4119 30.5711 39.8988 29.7767 40.2831 28.9567C39.9756 29.8023 39.6169 30.6479 39.13 31.468C38.6687 32.288 38.1306 33.0311 37.5412 33.6974C36.9518 34.3892 36.2856 35.0299 35.5681 35.568C34.8506 36.1318 34.0818 36.6187 33.2874 37.0287C32.493 37.4387 31.673 37.7718 30.8274 38.0537C29.9817 38.3099 29.1361 38.4893 28.2648 38.5918C27.4192 38.6943 26.5736 38.7199 25.7023 38.6687C24.8823 38.6174 24.0623 38.4893 23.2423 38.3099C22.4735 38.1306 21.7047 37.8743 20.9616 37.5668C20.4235 37.3362 19.8853 37.0799 19.3472 36.7724C19.1935 36.6955 19.0653 36.593 18.9116 36.5162C18.2709 36.1318 17.6816 35.6961 17.1434 35.2093C16.6053 34.748 16.1184 34.2611 15.6572 33.7486C15.2215 33.2617 14.8371 32.7236 14.4784 32.1855C14.1709 31.6986 13.8634 31.1604 13.6071 30.6223Z" fill="#1E295B"/>
<path d="M19.3984 33.0311C18.9115 32.698 18.4759 32.3648 18.0403 31.9805C17.6303 31.6473 17.2459 31.263 16.8871 30.8786C16.554 30.5198 16.2209 30.1354 15.939 29.7511C15.6571 29.3923 15.4009 29.0079 15.1446 28.5979C14.914 28.2392 14.709 27.8548 14.504 27.4704C14.3246 27.1116 14.1452 26.7273 14.0171 26.3429C13.8633 25.9841 13.7352 25.6254 13.6327 25.241C13.5302 24.8822 13.4277 24.5235 13.3508 24.1647C13.274 23.806 13.1971 23.4728 13.1458 23.1141C13.0946 22.781 13.069 22.4222 13.0433 22.0634C13.0177 21.8328 13.0177 21.6022 13.0177 21.3716C13.0433 21.8841 13.1202 22.3966 13.2227 22.8835C13.2483 23.0116 13.2996 23.1397 13.3252 23.2678C13.4021 23.5497 13.479 23.806 13.5815 24.0878C13.684 24.421 13.8121 24.7541 13.9658 25.0616C14.1196 25.3947 14.2733 25.7279 14.4271 26.0354C14.6065 26.3685 14.7859 26.7016 14.9909 27.0091C15.1959 27.3423 15.4265 27.6498 15.6571 27.9573C15.9134 28.2904 16.1696 28.5979 16.4259 28.9054C16.7078 29.2386 17.0153 29.5461 17.3228 29.8279C17.6559 30.1354 18.0147 30.4429 18.3734 30.7248C18.7578 31.0323 19.1678 31.3142 19.5778 31.5705C20.0391 31.8523 20.5003 32.1086 20.9616 32.3392C21.4741 32.5955 22.0122 32.8005 22.5503 32.9799C23.1141 33.1849 23.7291 33.3386 24.3185 33.4667C24.9591 33.5949 25.5998 33.6974 26.266 33.723C26.9579 33.7742 27.6498 33.7742 28.3417 33.723C29.0592 33.6717 29.7767 33.5692 30.5198 33.3899C30.6736 33.3642 30.853 33.313 31.0067 33.2617C31.5961 33.108 32.1599 32.903 32.7236 32.698C33.4668 32.3905 34.1843 32.0317 34.8761 31.6217C35.5937 31.1861 36.2599 30.6992 36.8749 30.1354C37.5156 29.5717 38.1049 28.931 38.6431 28.2648C39.1812 27.5729 39.6681 26.8298 40.0781 26.061C40.4881 25.2666 40.8469 24.4466 41.1031 23.601C41.385 22.7553 41.5644 21.8584 41.6669 20.9616C41.7694 20.0647 41.795 19.1421 41.7181 18.2196C41.8975 19.1165 41.9744 20.0134 41.9744 20.9616C41.9744 21.8841 41.8975 22.8066 41.7181 23.7035C41.5387 24.6004 41.2825 25.4716 40.9494 26.3173C40.6162 27.1629 40.2062 27.9573 39.7193 28.726C39.2325 29.4692 38.6943 30.1867 38.0793 30.853C37.4899 31.4936 36.8237 32.083 36.1318 32.5955C35.4399 33.108 34.7224 33.5436 33.9536 33.928C33.2105 34.2868 32.4417 34.5942 31.6474 34.8505C30.8786 35.0811 30.1098 35.2349 29.2898 35.3374C28.7004 35.4143 28.111 35.4399 27.496 35.4399C27.3167 35.4399 27.1629 35.4399 26.9835 35.4399C26.2404 35.4143 25.5229 35.3374 24.8054 35.2093C24.1135 35.0811 23.4472 34.9018 22.8066 34.6711C22.1916 34.4661 21.5766 34.2099 21.0128 33.9024C20.4234 33.6717 19.9109 33.3642 19.3984 33.0311Z" fill="#1E295B"/>
<path d="M25.6254 32.2111C25.0616 32.1599 24.4979 32.1086 23.9341 31.9805C23.4216 31.878 22.8835 31.7499 22.3966 31.5961C21.9353 31.4424 21.4484 31.2886 21.0128 31.0836C20.5772 30.9042 20.1672 30.6992 19.7572 30.4942C19.3728 30.2892 19.014 30.0586 18.6553 29.828C18.3221 29.5973 17.989 29.3667 17.6559 29.1104C17.3484 28.8798 17.0665 28.6236 16.7846 28.3417C16.5027 28.0854 16.2465 27.8292 15.9902 27.5473C15.7596 27.291 15.5033 27.0092 15.2983 26.7273C15.0933 26.4454 14.8883 26.1635 14.6833 25.8816C14.5552 25.7023 14.4271 25.4973 14.299 25.2923C14.5808 25.7279 14.8883 26.1379 15.2471 26.4967C15.3496 26.5992 15.4265 26.676 15.529 26.7785C15.734 26.9835 15.939 27.1629 16.1696 27.3679C16.4259 27.5986 16.7077 27.8292 16.9896 28.0342C17.2715 28.2392 17.579 28.4442 17.8865 28.6492C18.194 28.8542 18.5271 29.0336 18.8603 29.2129C19.1934 29.3923 19.5522 29.5717 19.9109 29.7255C20.2953 29.8792 20.6797 30.033 21.0641 30.1611C21.4741 30.2892 21.8841 30.4173 22.3197 30.5198C22.781 30.6223 23.2166 30.7248 23.6778 30.7761C24.1647 30.853 24.6516 30.8786 25.1641 30.9042C25.7022 30.9298 26.2404 30.9042 26.7529 30.8786C27.3166 30.8273 27.8804 30.7505 28.4442 30.648C29.0335 30.5198 29.6229 30.3661 30.2123 30.1867C30.8273 29.9817 31.4423 29.7255 32.0317 29.4436C32.6467 29.1361 33.2361 28.8029 33.8255 28.3929C34.4149 27.9829 35.0043 27.5217 35.5424 27.0348C35.6705 26.9323 35.7986 26.8042 35.9011 26.676C36.3368 26.2404 36.7212 25.8048 37.1055 25.3179C37.618 24.6773 38.0537 24.011 38.4124 23.2935C38.8224 22.5504 39.1299 21.8072 39.4118 21.0128C39.6937 20.1928 39.8731 19.3728 40.0012 18.5272C40.1293 17.6559 40.1806 16.7846 40.155 15.9134C40.1293 15.0165 40.0012 14.1452 39.8218 13.274C39.6168 12.4027 39.3606 11.5314 38.9762 10.7114C38.6174 9.89141 38.1818 9.0714 37.6693 8.30264C38.2587 8.99453 38.7968 9.73766 39.2581 10.5577C39.7193 11.3777 40.1037 12.1977 40.4112 13.0433C40.7187 13.9146 40.9237 14.7859 41.0518 15.6827C41.18 16.5796 41.2312 17.4765 41.18 18.399C41.1543 19.2959 41.0262 20.1672 40.8212 21.0385C40.6162 21.8841 40.36 22.7297 40.0012 23.5241C39.6681 24.3185 39.2581 25.0616 38.7968 25.7791C38.3356 26.471 37.823 27.1117 37.2593 27.7267C36.7212 28.3161 36.1061 28.8286 35.4655 29.3411C35.0043 29.6998 34.4917 30.033 33.9792 30.3405C33.8255 30.4173 33.6974 30.4942 33.5436 30.5967C32.8773 30.9555 32.2111 31.2374 31.5448 31.468C30.8786 31.6986 30.2123 31.878 29.5461 32.0061C28.9054 32.1342 28.2648 32.2111 27.5985 32.2367C26.8298 32.2367 26.2148 32.2367 25.6254 32.2111Z" fill="#1E295B"/>
<path d="M30.5967 28.3929C30.0842 28.6492 29.546 28.8542 29.0079 29.0592C28.4954 29.2385 28.0085 29.3923 27.4704 29.4948C26.9835 29.5973 26.4966 29.6998 26.0097 29.7511C25.5485 29.8023 25.0872 29.8535 24.626 29.8535C24.1903 29.8792 23.7547 29.8536 23.3191 29.8279C22.9091 29.8023 22.4991 29.7511 22.0891 29.6998C21.7047 29.6486 21.3203 29.5717 20.9359 29.4948C20.5772 29.4179 20.2184 29.3154 19.8596 29.2129C19.5265 29.1104 19.1678 28.9823 18.8346 28.8542C18.5015 28.726 18.194 28.5979 17.8865 28.4442C17.6815 28.3417 17.4765 28.2392 17.2715 28.1367C17.7327 28.3673 18.194 28.5723 18.6809 28.7004C18.809 28.726 18.9371 28.7773 19.0653 28.8029C19.3471 28.8798 19.629 28.931 19.9109 28.9823C20.2697 29.0592 20.6028 29.1104 20.9615 29.136C21.3203 29.1873 21.6791 29.2129 22.0378 29.2129C22.4222 29.2385 22.7809 29.2385 23.1653 29.2129C23.5497 29.1873 23.9341 29.1617 24.3185 29.136C24.7285 29.0848 25.1385 29.0335 25.5229 28.931C25.9585 28.8542 26.3685 28.726 26.7785 28.6235C27.2141 28.4954 27.6498 28.3417 28.0854 28.1623C28.5466 27.9829 28.9823 27.7779 29.4179 27.5216C29.8792 27.2654 30.3404 27.0091 30.7761 26.7016C31.2373 26.3941 31.6986 26.0354 32.1342 25.651C32.5955 25.241 33.0311 24.831 33.4411 24.3697C33.8767 23.8828 34.2867 23.3703 34.6455 22.8322C35.0299 22.2684 35.363 21.6534 35.6705 21.0384C35.978 20.3978 36.2599 19.7059 36.4649 18.9884C36.5161 18.8346 36.5674 18.6553 36.593 18.5015C36.7468 17.9121 36.8749 17.3227 36.9518 16.7334C37.0543 15.939 37.1055 15.119 37.0799 14.3246C37.0543 13.4789 36.9518 12.6589 36.798 11.8645C36.6186 11.0189 36.388 10.1989 36.0549 9.4045C35.7218 8.58449 35.3374 7.81573 34.8761 7.07259C34.4149 6.32945 33.8767 5.61195 33.2617 4.94569C32.6467 4.27943 31.9805 3.66442 31.2629 3.12628C30.5454 2.58815 29.751 2.10127 28.931 1.71689C29.7767 2.02439 30.6223 2.38315 31.4423 2.87003C32.2623 3.33129 33.0055 3.86942 33.6717 4.45881C34.3636 5.04819 35.0042 5.71445 35.5424 6.43196C36.1061 7.14947 36.593 7.91823 37.003 8.71261C37.413 9.507 37.7462 10.327 38.028 11.1727C38.2843 12.0183 38.4637 12.8639 38.5662 13.7352C38.6687 14.5808 38.6943 15.4265 38.643 16.2977C38.5918 17.1177 38.4637 17.9378 38.2843 18.7578C38.1049 19.5265 37.8487 20.2953 37.5412 21.0384C37.3105 21.5766 37.0543 22.1147 36.7468 22.6528C36.6699 22.8066 36.5674 22.9347 36.4905 23.0885C36.1061 23.7291 35.6705 24.3185 35.1836 24.8566C34.7224 25.3947 34.2355 25.8816 33.723 26.3429C33.2361 26.7785 32.698 27.1629 32.1598 27.5216C31.6729 27.8035 31.1348 28.111 30.5967 28.3929Z" fill="#2BACE2"/>
<path d="M33.0054 22.576C32.6723 23.0628 32.3392 23.4985 31.9548 23.9341C31.6217 24.3441 31.2373 24.7285 30.8529 25.0873C30.4941 25.4204 30.1098 25.7535 29.7254 26.0354C29.3666 26.3173 28.9823 26.5735 28.5722 26.8298C28.2135 27.0604 27.8291 27.2654 27.4447 27.4704C27.086 27.6498 26.7016 27.8292 26.3172 27.9573C25.9585 28.111 25.5997 28.2392 25.2153 28.3417C24.8566 28.4442 24.4978 28.5467 24.1391 28.6236C23.7803 28.7004 23.4472 28.7773 23.0884 28.8286C22.7553 28.8798 22.3965 28.9054 22.0378 28.9311C21.8071 28.9567 21.5765 28.9567 21.3459 28.9567C21.8584 28.9311 22.3709 28.8542 22.8578 28.7517C22.9859 28.7261 23.114 28.6748 23.2422 28.6492C23.524 28.5723 23.7803 28.4954 24.0622 28.3929C24.3953 28.2904 24.7284 28.1623 25.0359 28.0085C25.3691 27.8548 25.7022 27.701 26.0097 27.5473C26.3428 27.3679 26.676 27.1885 26.9835 26.9835C27.3166 26.7785 27.6241 26.5479 27.9316 26.3173C28.2647 26.061 28.5722 25.8048 28.8798 25.5485C29.2129 25.2666 29.5204 24.9591 29.8023 24.6516C30.1098 24.3185 30.4173 23.9597 30.6992 23.601C31.0067 23.2166 31.2885 22.8066 31.5448 22.3966C31.8267 21.9353 32.0829 21.4741 32.3136 21.0128C32.5698 20.5003 32.7748 19.9622 32.9542 19.424C33.1592 18.8603 33.3129 18.2453 33.4411 17.6559C33.5692 17.0153 33.6717 16.3746 33.6973 15.7084C33.7486 15.0165 33.7486 14.3246 33.6973 13.6327C33.6461 12.9152 33.5436 12.1977 33.3642 11.4545C33.3386 11.3008 33.2873 11.1214 33.2361 10.9677C33.0823 10.3783 32.8773 9.81452 32.6723 9.25076C32.3648 8.50763 32.006 7.79012 31.596 7.09823C31.1604 6.38072 30.6735 5.71447 30.1098 5.09946C29.546 4.45882 28.9054 3.86943 28.2391 3.3313C27.5472 2.79317 26.8041 2.30629 26.0353 1.89628C25.2409 1.48628 24.4209 1.12752 23.5753 0.871269C22.7297 0.58939 21.8328 0.410009 20.9359 0.307508C20.039 0.205006 19.1165 0.179378 18.194 0.256254C19.0909 0.0768761 19.9877 0 20.9359 0C21.8584 0 22.7809 0.0768761 23.6778 0.256254C24.5747 0.435631 25.4459 0.691885 26.2916 1.02502C27.1372 1.35814 27.9316 1.76816 28.7004 2.25504C29.4435 2.74192 30.161 3.28005 30.8273 3.89506C31.4679 4.48444 32.0573 5.15071 32.5698 5.84259C33.0823 6.53448 33.5179 7.25199 33.9023 8.02075C34.2611 8.76388 34.5686 9.53265 34.8248 10.327C35.0555 11.0958 35.2092 11.8645 35.3117 12.6846C35.3886 13.2739 35.4142 13.8633 35.4142 14.4783C35.4142 14.6577 35.4142 14.8115 35.4142 14.9908C35.3886 15.734 35.3117 16.4515 35.1836 17.169C35.0555 17.8609 34.8761 18.5272 34.6455 19.1678C34.4405 19.7828 34.1842 20.3978 33.8767 20.9616C33.6461 21.5509 33.3386 22.0891 33.0054 22.576Z" fill="#2BACE2"/>
</svg>
